<svg width="25" height="24" viewBox="0 0 25 24" fill="none" xmlns="http://www.w3.org/2000/svg">
<path d="M23.0529 7.32984C22.4452 5.90576 21.5859 4.62827 20.4752 3.51832C19.3644 2.40838 18.107 1.54974 16.6819 0.942408C15.194 0.314136 13.6222 0 12.0085 0C10.3738 0 8.80202 0.314136 7.33502 0.942408C5.90993 1.54974 4.63154 2.40838 3.52081 3.51832C2.41008 4.62827 1.55083 5.90576 0.943074 7.32984C0.314358 8.79581 0 10.3665 0 12C0 13.6126 0.314358 15.1832 0.943074 16.6702C1.55083 18.0942 2.41008 19.3717 3.52081 20.4817C4.63154 21.5916 5.90993 22.4503 7.33502 23.0366C8.82298 23.6649 10.3948 23.9791 12.0085 23.9791C13.6222 23.9791 15.194 23.6649 16.6819 23.0366C18.107 22.4293 19.3854 21.5707 20.4961 20.4607C21.6069 19.3508 22.4661 18.0733 23.0739 16.6492C23.7026 15.1623 24.0169 13.5916 24.0169 11.9791C24.0169 10.3665 23.6816 8.79581 23.0529 7.32984ZM8.02661 10.8691C8.50862 8.94241 10.269 7.53927 12.3438 7.53927H20.6848C21.2296 8.56545 21.565 9.69634 21.6907 10.8691H8.02661ZM21.6907 13.1309C21.565 14.3037 21.2087 15.4346 20.6848 16.4607H12.3438C10.269 16.4607 8.52958 15.0367 8.02661 13.1309H21.6907ZM5.11356 5.10995C6.95779 3.26702 9.40978 2.26178 12.0085 2.26178C14.6072 2.26178 17.0592 3.26702 18.9034 5.10995C18.9663 5.17277 19.0082 5.21466 19.071 5.27749H12.3438C10.5415 5.27749 8.86489 5.96859 7.5865 7.24607C6.58056 8.25131 5.93089 9.50785 5.72131 10.8691H2.32625C2.57774 8.6911 3.54177 6.68063 5.11356 5.10995ZM12.0085 21.7382C9.40978 21.7382 6.95779 20.733 5.11356 18.8901C3.54177 17.3194 2.57774 15.288 2.32625 13.1309H5.72131C5.95184 14.4921 6.60152 15.7487 7.5865 16.7539C8.86489 18.0314 10.5415 18.7225 12.3438 18.7225H19.071C19.0082 18.7853 18.9663 18.8272 18.9034 18.8901C17.0592 20.733 14.6072 21.7382 12.0085 21.7382Z" fill="currentColor"/>
</svg>
